<svg width="32" height="32" fill="none" xmlns="http://www.w3.org/2000/svg"><path d="M4.5 28h23c.275 0 .5-.225.5-.5v-23c0-.275-.225-.5-.5-.5h-23c-.275 0-.5.225-.5.5v23c0 .275.225.5.5.5z" fill="#fff"/><rect x="7" y="14" width="2" height="4" rx="1" fill="#892FFF"/><rect x="7" y="14" width="2" height="4" rx="1" fill="url(#a)"/><rect x="11" y="10" width="2" height="12" rx="1" fill="#892FFF"/><rect x="11" y="10" width="2" height="12" rx="1" fill="url(#b)"/><rect x="15" y="12" width="2" height="8" rx="1" fill="#892FFF"/><rect x="15" y="12" width="2" height="8" rx="1" fill="url(#c)"/><rect x="19" y="8" width="2" height="16" rx="1" fill="#892FFF"/><rect x="19" y="8" width="2" height="16" rx="1" fill="url(#d)"/><rect x="23" y="13" width="2" height="6" rx="1" fill="#892FFF"/><rect x="23" y="13" width="2" height="6" rx="1" fill="url(#e)"/><path opacity=".67" fill-rule="evenodd" clip-rule="evenodd" d="M4.5 29h23c.827 0 1.5-.673 1.5-1.5v-23c0-.827-.673-1.5-1.5-1.5h-23C3.673 3 3 3.673 3 4.5v23c0 .827.673 1.5 1.5 1.5zM4 4.5a.5.5 0 0 1 .5-.5h23a.5.5 0 0 1 .5.5v23a.5.5 0 0 1-.5.5h-23a.5.5 0 0 1-.5-.5v-23z" fill="#605E5C"/><defs><linearGradient id="a" x1="8" y1="17.021" x2="7.406" y2="15.382" gradientUnits="userSpaceOnUse"><stop stop-color="#A966FF"/><stop offset="1" stop-color="#892FFF"/></linearGradient><linearGradient id="b" x1="12" y1="19.063" x2="9.228" y2="16.514" gradientUnits="userSpaceOnUse"><stop stop-color="#A966FF"/><stop offset="1" stop-color="#892FFF"/></linearGradient><linearGradient id="c" x1="16" y1="18.042" x2="14.237" y2="15.611" gradientUnits="userSpaceOnUse"><stop stop-color="#A966FF"/><stop offset="1" stop-color="#892FFF"/></linearGradient><linearGradient id="d" x1="20" y1="20.084" x2="16.533" y2="17.693" gradientUnits="userSpaceOnUse"><stop stop-color="#A966FF"/><stop offset="1" stop-color="#892FFF"/></linearGradient><linearGradient id="e" x1="24" y1="17.532" x2="22.832" y2="15.384" gradientUnits="userSpaceOnUse"><stop stop-color="#A966FF"/><stop offset="1" stop-color="#892FFF"/></linearGradient></defs></svg>