<svg width="20" height="20" fill="none" xmlns="http://www.w3.org/2000/svg"><path fill-rule="evenodd" clip-rule="evenodd" d="M18 6H2V4.5c0-.275.225-.5.5-.5h15c.275 0 .5.225.5.5V6zm-.5 10h-15a.501.501 0 0 1-.5-.5V7h16v8.5c0 .275-.225.5-.5.5z" fill="#fff"/><path opacity=".67" fill-rule="evenodd" clip-rule="evenodd" d="M17.5 3h-15C1.673 3 1 3.673 1 4.5v11c0 .827.673 1.5 1.5 1.5h15c.827 0 1.5-.673 1.5-1.5v-11c0-.827-.673-1.5-1.5-1.5zm.5 12.5c0 .275-.225.5-.5.5h-15a.501.501 0 0 1-.5-.5V7h16v8.5zM2 6h16V4.5c0-.275-.225-.5-.5-.5h-15c-.275 0-.5.225-.5.5V6z" fill="#605E5C"/><path clip-rule="evenodd" d="M10 14.542c1.895 0 3.431-1.352 3.431-3.021 0-1.668-1.536-3.021-3.43-3.021-1.896 0-3.432 1.353-3.432 3.021S8.105 14.542 10 14.542z" stroke="#69AFE5"/><path clip-rule="evenodd" d="M10 14.542c.812 0 1.47-1.352 1.47-3.021 0-1.668-.658-3.021-1.47-3.021-.812 0-1.47 1.353-1.47 3.021s.658 3.021 1.47 3.021z" stroke="#69AFE5"/><path d="M7.059 10.726h5.882v-1H7.059v1zm0 2.59h5.882v-1H7.059v1z" fill="#69AFE5"/></svg>